<?xml version="1.0" encoding="UTF-8" standalone="no"?>
<svg width="80px" height="89px" viewBox="0 0 80 89" version="1.1" xmlns="http://www.w3.org/2000/svg" xmlns:xlink="http://www.w3.org/1999/xlink">
    <!-- Generator: Sketch 40.1 (33804) - http://www.bohemiancoding.com/sketch -->
    <title>logo</title>
    <desc>Created with Sketch.</desc>
    <defs></defs>
    <g id="lato" stroke="none" stroke-width="1" fill="none" fill-rule="evenodd">
        <g id="home-tablet" transform="translate(-82.000000, -154.000000)">
            <g id="logo" transform="translate(82.000000, 154.000000)">
                <path d="M45.3393773,2.13162821e-14 L34.1415938,2.13162821e-14 L0,2.13162821e-14 L0,18.8564723 L0,37.0253946 L0,50.2937776 L0.0317916099,50.2937776 C0.719204072,71.6630388 18.2276222,88.7800129 39.7395123,88.7800129 C61.2514025,88.7800129 78.7598206,71.6630388 79.4472331,50.2937776 L79.4790247,50.2937776 L79.4790247,39.7457151 L79.4790247,18.8564723 L79.4790247,2.13162821e-14 L45.3393773,2.13162821e-14 Z" id="logo-shield-copy" fill="#8FBF21"></path>
                <polygon id="Path" fill="#FFFFFF" points="32.7336796 9.36328101 37.4102903 9.36328101 37.4102903 4.68164051 32.7336796 4.68164051"></polygon>
                <polygon id="Path" fill="#FFFFFF" points="23.381107 9.36328101 28.0577177 9.36328101 28.0577177 4.68164051 23.381107 4.68164051"></polygon>
                <polygon id="Path" fill="#FFFFFF" points="14.0285345 9.36328101 18.7051452 9.36328101 18.7051452 4.68164051 14.0285345 4.68164051"></polygon>
                <polygon id="Path" fill="#FFFFFF" points="4.67596188 9.36328101 9.35257258 9.36328101 9.35257258 4.68164051 4.67596188 4.68164051"></polygon>
                <path d="M15.1639491,24.8934014 C15.0568957,24.885282 14.9764435,24.8804104 14.9277829,24.8804104 C14.3357452,24.8804104 13.8770377,25.0768997 13.557824,25.4692286 C13.2425031,25.8540877 13.0845183,26.3990612 13.0777058,27.1015508 L13.0971701,27.1015508 L13.0971701,30.5418989 C13.0971701,31.7360989 12.892471,32.7539457 12.4830729,33.5977127 C11.9675947,34.6736943 11.1805901,35.5525372 10.1256277,36.2329421 C9.07001653,36.9136718 7.97190838,37.2537118 6.82773482,37.2537118 L6.32782798,37.2426695 L6.32782798,32.3317374 C6.43747659,32.3414806 6.51663121,32.3444036 6.56723827,32.3444036 C7.16089792,32.3444036 7.61344175,32.1488887 7.93589951,31.7565598 C8.25057157,31.372675 8.40888081,30.8260776 8.4160177,30.1239127 L8.39720226,30.1239127 L8.39720226,26.6851885 C8.39720226,25.4906638 8.60319891,24.4715179 9.00967736,23.6293747 C9.52742643,22.5514445 10.3137822,21.6716273 11.3693934,20.9912224 C12.4217605,20.3137405 13.5218151,19.9707774 14.6640423,19.9707774 L15.1639491,19.9840932 L15.1639491,24.8934014 Z" id="Path" fill="#FFFFFF"></path>
                <path d="M33.3539404,32.4447593 C33.3539404,33.8464908 32.8819323,35.0384174 31.9372673,36.0218379 C30.9958464,37.0010364 29.8545925,37.4920971 28.512208,37.4920971 C27.1263533,37.4920971 25.8845341,36.9084754 24.7828575,35.7376593 C23.5679638,36.9084754 22.340094,37.4920971 21.1070337,37.4920971 C19.5472984,37.4920971 18.2950983,36.9237398 17.3523797,35.788649 C16.6124138,34.8951913 16.2406466,33.6055073 16.2406466,31.918298 L16.2406466,24.7553718 L20.9172573,24.7553718 L20.9172573,31.4805005 C20.9172573,32.0069618 20.9720816,32.3710352 21.0797838,32.5772677 C21.1894324,32.780902 21.3866701,32.8825568 21.6685774,32.8825568 C22.1957342,32.8825568 22.4568795,32.4168286 22.4568795,31.4805005 L22.4568795,24.7553718 L27.1347878,24.7553718 L27.1347878,31.4805005 C27.1347878,32.0069618 27.1928562,32.3710352 27.3057488,32.5772677 C27.4166951,32.780902 27.6142572,32.8825568 27.8994085,32.8825568 C28.4158599,32.8825568 28.6737613,32.4168286 28.6737613,31.4805005 L28.6737613,24.7553718 L33.3539404,24.7553718 L33.3539404,32.4447593 Z" id="Path" fill="#FFFFFF"></path>
                <path d="M46.5133961,27.4938798 L46.5133961,32.4447593 L46.5133961,38.0997523 C46.5133961,39.294277 46.308697,40.3140725 45.8992989,41.1549165 C45.3841451,42.2334964 44.5981138,43.1133135 43.5412049,43.7937184 C42.4868914,44.4737986 41.3887832,44.8138386 40.2465561,44.8138386 L39.7463248,44.8005228 L39.7463248,39.8908898 C39.8530538,39.8990092 39.9322084,39.9048552 39.9828155,39.9048552 C40.5751775,39.9048552 41.0319386,39.7080412 41.3527743,39.3150627 C41.6739345,38.9230585 41.8341901,38.365094 41.8341901,37.6379214 L41.8341901,37.4846273 C41.7796902,37.4862512 41.7264879,37.4920971 41.6713392,37.4920971 L40.4859664,37.4920971 C38.9278531,37.4920971 37.6772749,36.9237398 36.7355296,35.788649 C35.9929684,34.8951913 35.6212012,33.6055073 35.6212012,31.918298 L35.6212012,24.7553718 L40.2984607,24.7553718 L40.2984607,31.4805005 C40.2984607,32.0069618 40.3523118,32.3710352 40.4619604,32.5772677 C40.5690138,32.780902 40.766576,32.8825568 41.049132,32.8825568 C41.5600686,32.8825568 41.8208896,32.4372894 41.8341901,31.5493529 L41.8341901,31.4805005 L41.8341901,27.4938798 L41.8341901,24.7553718 L46.5133961,24.7553718 L46.5133961,27.4938798 Z" id="Path" fill="#FFFFFF"></path>
                <polygon id="Path" fill="#FFFFFF" points="42.0862522 9.36328101 46.7628629 9.36328101 46.7628629 4.68164051 42.0862522 4.68164051"></polygon>
                <path d="M55.3933117,24.6683319 C55.2836631,24.6589134 55.2058061,24.6553409 55.1551991,24.6553409 C54.5625126,24.6553409 54.1051027,24.8521549 53.7852402,25.2441591 C53.4647289,25.6381119 53.3035,26.1964012 53.3035,26.9219499 L53.3035,27.3480555 L55.3933117,27.3480555 L55.3933117,32.257039 L53.3035,32.257039 L53.3035,37.0659915 L48.6239697,37.0659915 L48.6239697,26.4584951 C48.6239697,25.2655943 48.8286687,24.2464484 49.2377424,23.4026814 C49.7554915,22.326375 50.5405496,21.4478569 51.5961608,20.7664777 C52.651772,20.085748 53.7502046,19.7457079 54.8921073,19.7457079 L55.3933117,19.7590237 L55.3933117,24.6683319 Z" id="Path" fill="#FFFFFF"></path>
                <polygon id="Path" fill="#FFFFFF" points="51.4388248 9.36328101 56.1154355 9.36328101 56.1154355 4.68164051 51.4388248 4.68164051"></polygon>
                <path d="M64.2115906,24.6683319 C64.1029152,24.6589134 64.0234362,24.6553409 63.9728292,24.6553409 C63.3817647,24.6553409 62.9250036,24.8521549 62.6041679,25.2441591 C62.282359,25.6381119 62.1227521,26.1964012 62.1227521,26.9219499 L62.1227521,27.3480555 L64.2115906,27.3480555 L64.2115906,32.257039 L62.1227521,32.257039 L62.1227521,37.0659915 L57.444195,37.0659915 L57.444195,26.4584951 C57.444195,25.2655943 57.6501916,24.2464484 58.0589409,23.4026814 C58.5740948,22.326375 59.3607749,21.4478569 60.4144397,20.7664777 C61.4700509,20.085748 62.568159,19.7457079 63.7116838,19.7457079 L64.2115906,19.7590237 L64.2115906,24.6683319 Z" id="Path" fill="#FFFFFF"></path>
                <polygon id="Path" fill="#FFFFFF" points="60.7917217 9.36328101 65.4683324 9.36328101 65.4683324 4.68164051 60.7917217 4.68164051"></polygon>
                <path d="M73.1511967,37.2426695 C72.9091912,37.249165 72.7310933,37.2537118 72.6139834,37.2537118 C71.5544793,37.2537118 70.5559632,37.0068824 69.6177863,36.5145225 C68.679285,36.0218379 67.9266673,35.3550736 67.3596088,34.5113065 C66.6442976,33.4343506 66.2835601,32.0069618 66.2835601,30.2284905 L66.2835601,19.9707774 L70.9627661,19.9707774 L70.9627661,24.7553718 L73.0645808,24.7553718 L73.0645808,29.7039779 L70.9627661,29.7039779 C70.9627661,30.6958426 71.1191289,31.3804696 71.4308813,31.7565598 C71.7426337,32.1326499 72.3181267,32.3203702 73.1511967,32.3203702 L73.1511967,37.2426695 Z" id="Path" fill="#FFFFFF"></path>
                <polygon id="Path" fill="#FFFFFF" points="70.1442943 9.36328101 74.820905 9.36328101 74.820905 4.68164051 70.1442943 4.68164051"></polygon>
            </g>
        </g>
    </g>
</svg>