<?xml version="1.0" encoding="utf-8"?>
<!-- Generator: Adobe Illustrator 21.0.2, SVG Export Plug-In . SVG Version: 6.00 Build 0)  -->
<svg version="1.1" id="Layer_1" xmlns="http://www.w3.org/2000/svg" xmlns:xlink="http://www.w3.org/1999/xlink" x="0px" y="0px"
	 viewBox="0 0 367 114" style="enable-background:new 0 0 367 114;" xml:space="preserve">
<style type="text/css">
	.st0{fill:#FFFFFF;}
	.st1{fill:url(#SVGID_1_);}
</style>
<g>
	<g>
		<path class="st0" d="M149.7,21.8h23.2v24.5h21.2V21.8h23.2V87c0,2.4-1.9,4.3-4.3,4.3h-18.9V66.4h-21.2v24.9h-23.2V21.8z"/>
		<path class="st0" d="M224.7,60.1V21.8H244c2.4,0,4.3,1.9,4.3,4.3v33.7c0,8.6,4.5,12.3,10.7,12.3c6.2,0,10.7-3.4,10.7-11.8V26.2
			c0-2.4,1.9-4.3,4.3-4.3h19.3v37.8c0,23.7-13.8,33-34.5,33C238.1,92.7,224.7,83.1,224.7,60.1z"/>
		<path class="st0" d="M300.6,21.8h38.9c9.6,0,15.7,2.2,19.7,6.2c2.5,2.5,4.3,6,4.3,10.8v0.2c0,8.2-5,13.3-12.4,15.9
			c8.9,2.6,14.7,7.3,14.7,16.9V72c0,11.1-9.1,19.2-26.7,19.2h-34.2c-2.4,0-4.3-1.9-4.3-4.3V21.8z M340.7,44.2c0-3.1-2.5-4.8-7.4-4.8
			h-10v9.7h10.1c5,0,7.3-1.7,7.3-4.8V44.2z M334.9,63.4h-11.7v10.3h11.6c5.1,0,7.6-2.1,7.6-5.1v-0.2C342.5,65.5,340,63.4,334.9,63.4
			z"/>
	</g>
	<linearGradient id="SVGID_1_" gradientUnits="userSpaceOnUse" x1="57.7317" y1="0.48" x2="57.7317" y2="113.52">
		<stop  offset="0" style="stop-color:#00AEEF"/>
		<stop  offset="0.25" style="stop-color:#0095DA"/>
		<stop  offset="0.5" style="stop-color:#0071B4"/>
		<stop  offset="0.75" style="stop-color:#0061AF"/>
		<stop  offset="1" style="stop-color:#293996"/>
	</linearGradient>
	<path class="st1" d="M57.7,23.4c18.6,0,33.6,15,33.6,33.6s-15,33.6-33.6,33.6S24.1,75.6,24.1,57S39.2,23.4,57.7,23.4 M57.7,0.5
		c-7.6,0-15,1.5-22,4.5C29,7.8,22.9,11.9,17.8,17S8.5,28.3,5.7,35c-3,7-4.5,14.4-4.5,22s1.5,15,4.5,22c2.8,6.7,6.9,12.8,12.1,18
		c5.2,5.2,11.2,9.3,18,12.1c7,3,14.4,4.5,22,4.5s15-1.5,22-4.5c6.7-2.8,12.8-6.9,18-12.1c5.2-5.2,9.3-11.2,12.1-18
		c3-7,4.5-14.4,4.5-22s-1.5-15-4.5-22c-2.8-6.7-6.9-12.8-12.1-18c-5.2-5.2-11.2-9.3-18-12.1C72.8,2,65.4,0.5,57.7,0.5L57.7,0.5z"/>
</g>
</svg>
