<?xml version="1.0" encoding="UTF-8" standalone="no"?>
<svg
   xmlns:dc="http://purl.org/dc/elements/1.1/"
   xmlns:cc="http://creativecommons.org/ns#"
   xmlns:rdf="http://www.w3.org/1999/02/22-rdf-syntax-ns#"
   xmlns:svg="http://www.w3.org/2000/svg"
   xmlns="http://www.w3.org/2000/svg"
   xmlns:sodipodi="http://sodipodi.sourceforge.net/DTD/sodipodi-0.dtd"
   xmlns:inkscape="http://www.inkscape.org/namespaces/inkscape"
   width="80px"
   height="89px"
   viewBox="0 0 80 89"
   version="1.1"
   id="svg3793"
   sodipodi:docname="bb-logo-svg3.svg"
   inkscape:version="0.92.3 (2405546, 2018-03-11)"
   inkscape:export-filename="C:\Users\JiHo\Desktop\BetterBind\Modified\images\bb-logo-svg.png"
   inkscape:export-xdpi="24.9"
   inkscape:export-ydpi="24.9">
  <metadata
     id="metadata3797">
    <rdf:RDF>
      <cc:Work
         rdf:about="">
        <dc:format>image/svg+xml</dc:format>
        <dc:type
           rdf:resource="http://purl.org/dc/dcmitype/StillImage" />
        <dc:title>logo</dc:title>
      </cc:Work>
    </rdf:RDF>
  </metadata>
  <sodipodi:namedview
     pagecolor="#ffffff"
     bordercolor="#666666"
     borderopacity="1"
     objecttolerance="10"
     gridtolerance="10"
     guidetolerance="10"
     inkscape:pageopacity="0"
     inkscape:pageshadow="2"
     inkscape:window-width="1680"
     inkscape:window-height="988"
     id="namedview3795"
     showgrid="false"
     inkscape:zoom="7.5000989"
     inkscape:cx="17.084995"
     inkscape:cy="34.887142"
     inkscape:window-x="-8"
     inkscape:window-y="-8"
     inkscape:window-maximized="1"
     inkscape:current-layer="svg3793" />
  <!-- Generator: Sketch 40.1 (33804) - http://www.bohemiancoding.com/sketch -->
  <title
     id="title3756">logo</title>
  <desc
     id="desc3758">Created with Sketch.</desc>
  <defs
     id="defs3760" />
  <g
     id="lato"
     transform="matrix(1,0,0,-1,0,88.780013)"
     style="fill:#218fbf;fill-rule:evenodd;stroke:none;stroke-width:1;fill-opacity:1">
    <g
       id="home-tablet"
       transform="translate(-82,-154)"
       style="fill:#218fbf;fill-opacity:1">
      <g
         id="logo"
         transform="translate(82,154)"
         style="fill:#218fbf;fill-opacity:1">
        <path
           d="M 45.339377,0 H 34.141594 0 V 18.856472 37.025395 50.293778 H 0.03179161 C 0.71920407,71.663039 18.227622,88.780013 39.739512,88.780013 c 21.51189,0 39.020309,-17.116974 39.707721,-38.486235 h 0.03179 V 39.745715 18.856472 0 Z"
           id="logo-shield-copy"
           inkscape:connector-curvature="0"
           style="fill:#218fbf;fill-opacity:1" />
        <path
           d="m 15.163949,24.893401 c -0.107053,-0.0081 -0.187505,-0.01299 -0.236166,-0.01299 -0.592038,0 -1.050745,0.19649 -1.369959,0.588819 -0.315321,0.384859 -0.473306,0.929832 -0.480118,1.632322 h 0.01946 v 3.440348 c 0,1.1942 -0.204699,2.212047 -0.614097,3.055814 -0.515478,1.075981 -1.302483,1.954824 -2.357445,2.635229 -1.0556115,0.68073 -2.1537196,1.02077 -3.2978932,1.02077 L 6.327828,37.242669 v -4.910932 c 0.1096486,0.0097 0.1888032,0.01267 0.2394103,0.01267 0.5936596,0 1.0462034,-0.195515 1.3686612,-0.587844 0.3146721,-0.383885 0.4729813,-0.930482 0.4801182,-1.632647 h -0.018815 v -3.438725 c 0,-1.194524 0.2059966,-2.21367 0.6124751,-3.055813 0.517749,-1.077931 1.3041046,-1.957748 2.3597156,-2.638153 1.052368,-0.677481 2.152422,-1.020445 3.294649,-1.020445 l 0.499907,0.01332 z"
           id="path3770"
           inkscape:connector-curvature="0"
           style="fill:#218fbf;fill-opacity:1" />
        <path
           d="m 33.35394,32.444759 c 0,1.401732 -0.472008,2.593658 -1.416673,3.577079 -0.941421,0.979198 -2.082675,1.470259 -3.425059,1.470259 -1.385855,0 -2.627674,-0.583622 -3.729351,-1.754438 -1.214893,1.170816 -2.442763,1.754438 -3.675823,1.754438 -1.559736,0 -2.811936,-0.568357 -3.754654,-1.703448 -0.739966,-0.893458 -1.111733,-2.183142 -1.111733,-3.870351 v -7.162926 h 4.67661 v 6.725129 c 0,0.526461 0.05483,0.890534 0.162527,1.096767 0.109648,0.203634 0.306886,0.305289 0.588793,0.305289 0.527157,0 0.788302,-0.465728 0.788302,-1.402056 v -6.725129 h 4.677909 v 6.725129 c 0,0.526461 0.05807,0.890534 0.170961,1.096767 0.110946,0.203634 0.308508,0.305289 0.593659,0.305289 0.516452,0 0.774353,-0.465728 0.774353,-1.402056 v -6.725129 h 4.680179 z"
           id="path3772"
           inkscape:connector-curvature="0"
           style="fill:#218fbf;fill-opacity:1" />
        <path
           d="m 46.513396,27.49388 v 4.950879 5.654993 c 0,1.194525 -0.204699,2.214321 -0.614097,3.055164 -0.515154,1.07858 -1.301185,1.958397 -2.358094,2.638802 -1.054314,0.680081 -2.152422,1.020121 -3.294649,1.020121 l -0.500231,-0.01332 V 39.89089 c 0.106729,0.0081 0.185883,0.01396 0.23649,0.01396 0.592363,0 1.049124,-0.196814 1.369959,-0.589792 0.321161,-0.392004 0.481416,-0.949969 0.481416,-1.677142 v -0.153294 c -0.0545,0.0016 -0.107702,0.0075 -0.162851,0.0075 h -1.185373 c -1.558113,0 -2.808691,-0.568357 -3.750436,-1.703448 -0.742562,-0.893458 -1.114329,-2.183142 -1.114329,-3.870351 v -7.162926 h 4.67726 v 6.725129 c 0,0.526461 0.05385,0.890534 0.163499,1.096767 0.107054,0.203634 0.304616,0.305289 0.587172,0.305289 0.510937,0 0.771758,-0.445268 0.785058,-1.333204 v -0.06885 -3.986621 -2.738508 h 4.679206 z"
           id="path3774"
           inkscape:connector-curvature="0"
           style="fill:#218fbf;fill-opacity:1" />
        <path
           d="m 55.393312,24.668332 c -0.109649,-0.0094 -0.187506,-0.01299 -0.238113,-0.01299 -0.592686,0 -1.050096,0.196814 -1.369959,0.588818 -0.320511,0.393953 -0.48174,0.952242 -0.48174,1.677791 v 0.426105 h 2.089812 v 4.908984 H 53.3035 v 4.808953 H 48.62397 V 26.458495 c 0,-1.192901 0.204699,-2.212047 0.613772,-3.055814 0.517749,-1.076306 1.302808,-1.954824 2.358419,-2.636203 1.055611,-0.68073 2.154044,-1.02077 3.295946,-1.02077 l 0.501205,0.01332 z"
           id="path3778"
           inkscape:connector-curvature="0"
           style="fill:#218fbf;fill-opacity:1" />
        <path
           d="m 64.211591,24.668332 c -0.108676,-0.0094 -0.188155,-0.01299 -0.238762,-0.01299 -0.591064,0 -1.047825,0.196814 -1.368661,0.588818 -0.321809,0.393953 -0.481416,0.952242 -0.481416,1.677791 v 0.426105 h 2.088839 v 4.908984 h -2.088839 v 4.808953 H 57.444195 V 26.458495 c 0,-1.192901 0.205997,-2.212047 0.614746,-3.055814 0.515154,-1.076306 1.301834,-1.954824 2.355499,-2.636203 1.055611,-0.68073 2.153719,-1.02077 3.297244,-1.02077 l 0.499907,0.01332 z"
           id="path3782"
           inkscape:connector-curvature="0"
           style="fill:#218fbf;fill-opacity:1" />
        <path
           d="m 73.151197,37.242669 c -0.242006,0.0065 -0.420104,0.01104 -0.537214,0.01104 -1.059504,0 -2.05802,-0.24683 -2.996197,-0.73919 C 68.679285,36.021838 67.926667,35.355074 67.359609,34.511307 66.644298,33.434351 66.28356,32.006962 66.28356,30.22849 V 19.970777 h 4.679206 v 4.784595 h 2.101815 v 4.948606 h -2.101815 c 0,0.991865 0.156363,1.676492 0.468115,2.052582 0.311753,0.37609 0.887246,0.56381 1.720316,0.56381 z"
           id="path3786"
           inkscape:connector-curvature="0"
           style="fill:#218fbf;fill-opacity:1" />
      </g>
    </g>
  </g>
  <g
     aria-label="Better"
     style="font-style:normal;font-variant:normal;font-weight:normal;font-stretch:normal;font-size:24px;line-height:1.25;font-family:'Bauhaus 93';-inkscape-font-specification:'Bauhaus 93, ';letter-spacing:0px;word-spacing:0px;fill:#ffffff;fill-opacity:1;stroke:none;stroke-opacity:1"
     id="text3837" />
  <g
     aria-label="Bind"
     style="font-style:normal;font-variant:normal;font-weight:normal;font-stretch:normal;font-size:24px;line-height:1.25;font-family:'Bauhaus 93';-inkscape-font-specification:'Bauhaus 93, ';letter-spacing:0px;word-spacing:0px;fill:#ffffff;fill-opacity:1;stroke:none;stroke-opacity:1"
     id="text3849" />
  <path
     id="path3851-7-7-5"
     style="fill:#ffffff;fill-opacity:1"
     d="m 74.820905,84.098373 -2.52755,-1.783918 -2.51987,1.797853 0.915551,-2.955104 -2.488542,-1.840971 3.093391,-0.04244 0.981866,-2.935636 0.99627,2.928877 3.09537,0.02665 -2.477663,1.852582 z m -9.482731,0.05496 -2.52755,-1.783918 -2.51987,1.797853 0.915552,-2.955103 -2.488543,-1.840972 3.093391,-0.04244 0.981867,-2.935637 0.99627,2.928877 3.095369,0.02665 -2.477663,1.852581 z m -9.128128,-0.188293 -2.52755,-1.783918 -2.51987,1.797853 0.915551,-2.955104 -2.488542,-1.840971 3.093391,-0.04244 0.981867,-2.935636 0.99627,2.928877 3.095369,0.02665 -2.477663,1.852582 z m -18.533092,0.133331 -2.52755,-1.783918 -2.51987,1.797853 0.915551,-2.955104 -2.488543,-1.840971 3.093392,-0.04244 0.981866,-2.935636 0.99627,2.928877 3.095369,0.02665 -2.477663,1.852582 z m 9.050361,-0.07837 -2.527549,-1.783918 -2.51987,1.797853 0.915551,-2.955104 -2.488543,-1.840971 3.093392,-0.04244 0.981866,-2.935636 0.99627,2.928877 3.095369,0.02665 -2.477663,1.852582 z m -18.457357,0.05325 -2.52755,-1.783918 -2.51987,1.797853 0.915551,-2.955103 -2.488542,-1.840972 3.093391,-0.04244 0.981866,-2.935636 0.99627,2.928877 3.09537,0.02665 -2.477663,1.852581 z m -18.6664214,0 -2.5275499,-1.783918 -2.51987,1.797853 0.9155511,-2.955103 -2.4885426,-1.840972 3.0933915,-0.04244 0.9818661,-2.935636 0.9962701,2.928877 3.0953691,0.02665 -2.4776627,1.852581 z m 9.3170214,0.05496 -2.527549,-1.783918 -2.51987,1.797853 0.915551,-2.955103 -2.488543,-1.840972 3.093392,-0.04244 0.981866,-2.935637 0.99627,2.928877 3.095369,0.02665 -2.477663,1.852581 z m 39.074859,-29.52407 h 4.382812 v 9.738281 q 0,2.683594 -1.40625,4.371094 -0.808594,0.972656 -2.0625,1.546875 -1.242187,0.574219 -2.554687,0.574219 -2.613282,0 -4.40625,-1.757813 -1.792969,-1.757812 -1.792969,-4.3125 0,-2.472656 1.78125,-4.277344 1.78125,-1.804687 4.21875,-1.804687 0.386719,0 1.171875,0.07031 v 4.828125 q -0.539063,-0.421875 -1.078125,-0.421875 -0.679688,0 -1.171875,0.503907 -0.480469,0.492187 -0.480469,1.195312 0,0.679688 0.503906,1.171875 0.503907,0.480469 1.207032,0.480469 1.6875,0 1.6875,-2.332031 z m -9.761719,15.996094 h -4.382813 v -6.597657 q 0,-1.007812 -0.832031,-1.007812 -0.820312,0 -0.820312,1.007812 v 6.597657 h -4.382813 v -6.515625 q 0,-2.285157 1.511719,-3.84375 1.511719,-1.570313 3.703125,-1.570313 2.507812,0 4.019531,1.816406 1.183594,1.417969 1.183594,3.949219 z M 35.214167,58.916649 V 70.600243 H 30.831354 V 58.916649 Z m -2.179688,-5.214844 q 0.890625,0 1.535156,0.632813 0.65625,0.621093 0.65625,1.476562 0,0.914063 -0.621093,1.5 -0.609375,0.585938 -1.570313,0.585938 -0.960937,0 -1.582031,-0.585938 -0.609375,-0.585937 -0.609375,-1.5 0,-0.855469 0.644531,-1.476562 0.65625,-0.632813 1.546875,-0.632813 z m -15.5625,0.902344 h 5.8125 q 5.167969,0 5.167969,4.066406 0,2.015625 -1.769531,3.351563 2.566406,1.113281 2.566406,3.972656 0,2.191406 -1.511719,3.492187 -0.738281,0.621094 -1.582031,0.867188 -0.84375,0.246094 -2.273438,0.246094 h -0.902343 v -4.113282 h 0.808593 q 0.714844,0 1.007813,-0.175781 0.292969,-0.1875 0.292969,-0.644531 0,-0.773438 -1.195313,-0.773438 h -0.914062 v -4.265625 q 1.3125,0 1.3125,-0.902343 0,-0.832032 -1.183594,-0.832032 H 22.229792 V 70.600243 H 17.471979 Z M 70.476165,39.487354 v 4.6875 q -0.457031,-0.257812 -0.832031,-0.257812 -1.195313,0 -1.195313,1.828125 v 5.542969 h -4.382812 v -6.386719 q 0,-2.53125 1.382812,-4.03125 1.382813,-1.511719 3.691406,-1.511719 0.515625,0 1.335938,0.128906 z m -8.238281,6.667969 h -6.644532 q -0.152343,-0.503906 -0.152343,-0.925781 0,-0.585938 0.210937,-1.148438 h 2.226563 q -0.234375,-1.300781 -1.464844,-1.300781 -0.820313,0 -1.335938,0.703125 -0.515625,0.691406 -0.515625,1.78125 0,1.136719 0.492188,1.839844 0.503906,0.703125 1.3125,0.703125 0.65625,0 1.265625,-0.65625 l 2.496094,3 q -1.746094,1.371094 -3.878907,1.371094 -2.601562,0 -4.371093,-1.746094 -1.769532,-1.746094 -1.769532,-4.324219 0,-2.566406 1.78125,-4.335937 1.792969,-1.769532 4.394532,-1.769532 2.542968,0 4.265625,1.734375 1.734375,1.722657 1.734375,4.253907 0,0.257812 -0.04687,0.820312 z M 46.640227,35.292042 v 4.476562 h 1.96875 v 4.628907 h -1.96875 q 0,1.394531 0.433594,1.921875 0.445313,0.527343 1.617188,0.527343 v 4.605469 q -0.339844,0.01172 -0.503907,0.01172 -1.488281,0 -2.8125,-0.691406 -1.3125,-0.691407 -2.109375,-1.875 -1.007812,-1.511719 -1.007812,-4.007813 v -9.597656 z m -8.015625,0 v 4.476562 h 1.96875 v 4.628907 h -1.96875 q 0,1.394531 0.433594,1.921875 0.445313,0.527343 1.617188,0.527343 v 4.605469 q -0.339844,0.01172 -0.503907,0.01172 -1.488281,0 -2.8125,-0.691406 -1.3125,-0.691407 -2.109375,-1.875 -1.007812,-1.511719 -1.007812,-4.007813 v -9.597656 z m -5.730468,10.863281 h -6.644532 q -0.152343,-0.503906 -0.152343,-0.925781 0,-0.585938 0.210937,-1.148438 h 2.226563 q -0.234375,-1.300781 -1.464844,-1.300781 -0.820313,0 -1.335938,0.703125 -0.515625,0.691406 -0.515625,1.78125 0,1.136719 0.492188,1.839844 0.503906,0.703125 1.3125,0.703125 0.65625,0 1.265625,-0.65625 l 2.496094,3 q -1.746094,1.371094 -3.878907,1.371094 -2.601562,0 -4.371093,-1.746094 -1.769532,-1.746094 -1.769532,-4.324219 0,-2.566406 1.78125,-4.335937 1.792969,-1.769532 4.394532,-1.769532 2.542968,0 4.265625,1.734375 1.734375,1.722657 1.734375,4.253907 0,0.257812 -0.04687,0.820312 z M 8.0503836,35.292042 h 5.8125004 q 5.167968,0 5.167968,4.066406 0,2.015625 -1.769531,3.351563 2.566406,1.113281 2.566406,3.972656 0,2.191406 -1.511718,3.492187 -0.738282,0.621094 -1.582032,0.867188 -0.84375,0.246094 -2.273437,0.246094 h -0.902344 v -4.113282 h 0.808594 q 0.714844,0 1.007812,-0.175781 0.292969,-0.1875 0.292969,-0.644531 0,-0.773438 -1.195312,-0.773438 h -0.914063 v -4.265625 q 1.3125,0 1.3125,-0.902343 0,-0.832032 -1.183594,-0.832032 H 12.808196 V 51.288136 H 8.0503836 Z" />
  <g
     inkscape:groupmode="layer"
     id="layer2"
     inkscape:label="Layer 1" />
  <g
     inkscape:groupmode="layer"
     id="layer3"
     inkscape:label="Layer 2" />
</svg>
