<svg xmlns="http://www.w3.org/2000/svg" xmlns:xlink="http://www.w3.org/1999/xlink" width="25" height="25" viewBox="0 0 25 25">
    <defs>
        <path id="a" d="M12.5 10.322l9.82-9.82a1.01 1.01 0 0 1 1.429 0l.032.033a1.01 1.01 0 0 1 0 1.43L13.25 12.497a1.008 1.008 0 0 1-.749.296c-.27.009-.543-.09-.749-.296L1.22 1.965a1.01 1.01 0 0 1 0-1.43L1.25.503a1.01 1.01 0 0 1 1.43 0l9.819 9.82z"/>
    </defs>
    <g fill="none" fill-rule="evenodd" transform="translate(0 6)">
        <mask id="b" fill="#fff">
            <use xlink:href="#a"/>
        </mask>
        <g fill="#fff" mask="url(#b)">
            <path d="M0-6h25v25H0z"/>
        </g>
    </g>
</svg>
