<?xml version="1.0" encoding="UTF-8" standalone="no"?>
<svg
   xmlns:dc="http://purl.org/dc/elements/1.1/"
   xmlns:cc="http://creativecommons.org/ns#"
   xmlns:rdf="http://www.w3.org/1999/02/22-rdf-syntax-ns#"
   xmlns:svg="http://www.w3.org/2000/svg"
   xmlns="http://www.w3.org/2000/svg"
   xmlns:sodipodi="http://sodipodi.sourceforge.net/DTD/sodipodi-0.dtd"
   xmlns:inkscape="http://www.inkscape.org/namespaces/inkscape"
   width="80px"
   height="89px"
   viewBox="0 0 80 89"
   version="1.1"
   id="svg3793"
   sodipodi:docname="logo-svg.svg"
   inkscape:version="0.92.3 (2405546, 2018-03-11)">
  <metadata
     id="metadata3797">
    <rdf:RDF>
      <cc:Work
         rdf:about="">
        <dc:format>image/svg+xml</dc:format>
        <dc:type
           rdf:resource="http://purl.org/dc/dcmitype/StillImage" />
        <dc:title>logo</dc:title>
      </cc:Work>
    </rdf:RDF>
  </metadata>
  <sodipodi:namedview
     pagecolor="#ffffff"
     bordercolor="#666666"
     borderopacity="1"
     objecttolerance="10"
     gridtolerance="10"
     guidetolerance="10"
     inkscape:pageopacity="0"
     inkscape:pageshadow="2"
     inkscape:window-width="1680"
     inkscape:window-height="988"
     id="namedview3795"
     showgrid="false"
     inkscape:zoom="7.5000989"
     inkscape:cx="17.618321"
     inkscape:cy="34.887142"
     inkscape:window-x="-8"
     inkscape:window-y="-8"
     inkscape:window-maximized="1"
     inkscape:current-layer="svg3793" />
  <!-- Generator: Sketch 40.1 (33804) - http://www.bohemiancoding.com/sketch -->
  <title
     id="title3756">logo</title>
  <desc
     id="desc3758">Created with Sketch.</desc>
  <defs
     id="defs3760">
    <meshgradient
       inkscape:collect="always"
       id="meshgradient3815"
       gradientUnits="userSpaceOnUse"
       x="6.4364405"
       y="20.288982"
       gradientTransform="matrix(1,0,0,-1,0,88.780013)">
      <meshrow
         id="meshrow3817">
        <meshpatch
           id="meshpatch3819">
          <stop
             path="c 2.89124,0  5.78249,0  8.67373,0"
             style="stop-color:#ffffff;stop-opacity:1"
             id="stop3821" />
          <stop
             path="c 0,5.66157  0,11.3231  0,16.9847"
             style="stop-color:#8fbf21;stop-opacity:1"
             id="stop3823" />
          <stop
             path="c -2.89124,0  -5.78249,0  -8.67373,0"
             style="stop-color:#ffffff;stop-opacity:1"
             id="stop3825" />
          <stop
             path="c 0,-5.66157  0,-11.3231  0,-16.9847"
             style="stop-color:#8fbf21;stop-opacity:1"
             id="stop3827" />
        </meshpatch>
      </meshrow>
    </meshgradient>
  </defs>
  <g
     id="lato"
     transform="matrix(1,0,0,-1,0,88.780013)"
     style="fill:#218fbf;fill-rule:evenodd;stroke:none;stroke-width:1;fill-opacity:1">
    <g
       id="home-tablet"
       transform="translate(-82,-154)"
       style="fill:#218fbf;fill-opacity:1">
      <g
         id="logo"
         transform="translate(82,154)"
         style="fill:#218fbf;fill-opacity:1">
        <path
           d="M 45.339377,0 H 34.141594 0 V 18.856472 37.025395 50.293778 H 0.03179161 C 0.71920407,71.663039 18.227622,88.780013 39.739512,88.780013 c 21.51189,0 39.020309,-17.116974 39.707721,-38.486235 h 0.03179 V 39.745715 18.856472 0 Z"
           id="logo-shield-copy"
           inkscape:connector-curvature="0"
           style="fill:#218fbf;fill-opacity:1" />
        <path
           d="m 15.163949,24.893401 c -0.107053,-0.0081 -0.187505,-0.01299 -0.236166,-0.01299 -0.592038,0 -1.050745,0.19649 -1.369959,0.588819 -0.315321,0.384859 -0.473306,0.929832 -0.480118,1.632322 h 0.01946 v 3.440348 c 0,1.1942 -0.204699,2.212047 -0.614097,3.055814 -0.515478,1.075981 -1.302483,1.954824 -2.357445,2.635229 -1.0556115,0.68073 -2.1537196,1.02077 -3.2978932,1.02077 L 6.327828,37.242669 v -4.910932 c 0.1096486,0.0097 0.1888032,0.01267 0.2394103,0.01267 0.5936596,0 1.0462034,-0.195515 1.3686612,-0.587844 0.3146721,-0.383885 0.4729813,-0.930482 0.4801182,-1.632647 h -0.018815 v -3.438725 c 0,-1.194524 0.2059966,-2.21367 0.6124751,-3.055813 0.517749,-1.077931 1.3041046,-1.957748 2.3597156,-2.638153 1.052368,-0.677481 2.152422,-1.020445 3.294649,-1.020445 l 0.499907,0.01332 z"
           id="path3770"
           inkscape:connector-curvature="0"
           style="fill:#218fbf;fill-opacity:1" />
        <path
           d="m 33.35394,32.444759 c 0,1.401732 -0.472008,2.593658 -1.416673,3.577079 -0.941421,0.979198 -2.082675,1.470259 -3.425059,1.470259 -1.385855,0 -2.627674,-0.583622 -3.729351,-1.754438 -1.214893,1.170816 -2.442763,1.754438 -3.675823,1.754438 -1.559736,0 -2.811936,-0.568357 -3.754654,-1.703448 -0.739966,-0.893458 -1.111733,-2.183142 -1.111733,-3.870351 v -7.162926 h 4.67661 v 6.725129 c 0,0.526461 0.05483,0.890534 0.162527,1.096767 0.109648,0.203634 0.306886,0.305289 0.588793,0.305289 0.527157,0 0.788302,-0.465728 0.788302,-1.402056 v -6.725129 h 4.677909 v 6.725129 c 0,0.526461 0.05807,0.890534 0.170961,1.096767 0.110946,0.203634 0.308508,0.305289 0.593659,0.305289 0.516452,0 0.774353,-0.465728 0.774353,-1.402056 v -6.725129 h 4.680179 z"
           id="path3772"
           inkscape:connector-curvature="0"
           style="fill:#218fbf;fill-opacity:1" />
        <path
           d="m 46.513396,27.49388 v 4.950879 5.654993 c 0,1.194525 -0.204699,2.214321 -0.614097,3.055164 -0.515154,1.07858 -1.301185,1.958397 -2.358094,2.638802 -1.054314,0.680081 -2.152422,1.020121 -3.294649,1.020121 l -0.500231,-0.01332 V 39.89089 c 0.106729,0.0081 0.185883,0.01396 0.23649,0.01396 0.592363,0 1.049124,-0.196814 1.369959,-0.589792 0.321161,-0.392004 0.481416,-0.949969 0.481416,-1.677142 v -0.153294 c -0.0545,0.0016 -0.107702,0.0075 -0.162851,0.0075 h -1.185373 c -1.558113,0 -2.808691,-0.568357 -3.750436,-1.703448 -0.742562,-0.893458 -1.114329,-2.183142 -1.114329,-3.870351 v -7.162926 h 4.67726 v 6.725129 c 0,0.526461 0.05385,0.890534 0.163499,1.096767 0.107054,0.203634 0.304616,0.305289 0.587172,0.305289 0.510937,0 0.771758,-0.445268 0.785058,-1.333204 v -0.06885 -3.986621 -2.738508 h 4.679206 z"
           id="path3774"
           inkscape:connector-curvature="0"
           style="fill:#218fbf;fill-opacity:1" />
        <path
           d="m 55.393312,24.668332 c -0.109649,-0.0094 -0.187506,-0.01299 -0.238113,-0.01299 -0.592686,0 -1.050096,0.196814 -1.369959,0.588818 -0.320511,0.393953 -0.48174,0.952242 -0.48174,1.677791 v 0.426105 h 2.089812 v 4.908984 H 53.3035 v 4.808953 H 48.62397 V 26.458495 c 0,-1.192901 0.204699,-2.212047 0.613772,-3.055814 0.517749,-1.076306 1.302808,-1.954824 2.358419,-2.636203 1.055611,-0.68073 2.154044,-1.02077 3.295946,-1.02077 l 0.501205,0.01332 z"
           id="path3778"
           inkscape:connector-curvature="0"
           style="fill:#218fbf;fill-opacity:1" />
        <path
           d="m 64.211591,24.668332 c -0.108676,-0.0094 -0.188155,-0.01299 -0.238762,-0.01299 -0.591064,0 -1.047825,0.196814 -1.368661,0.588818 -0.321809,0.393953 -0.481416,0.952242 -0.481416,1.677791 v 0.426105 h 2.088839 v 4.908984 h -2.088839 v 4.808953 H 57.444195 V 26.458495 c 0,-1.192901 0.205997,-2.212047 0.614746,-3.055814 0.515154,-1.076306 1.301834,-1.954824 2.355499,-2.636203 1.055611,-0.68073 2.153719,-1.02077 3.297244,-1.02077 l 0.499907,0.01332 z"
           id="path3782"
           inkscape:connector-curvature="0"
           style="fill:#218fbf;fill-opacity:1" />
        <path
           d="m 73.151197,37.242669 c -0.242006,0.0065 -0.420104,0.01104 -0.537214,0.01104 -1.059504,0 -2.05802,-0.24683 -2.996197,-0.73919 C 68.679285,36.021838 67.926667,35.355074 67.359609,34.511307 66.644298,33.434351 66.28356,32.006962 66.28356,30.22849 V 19.970777 h 4.679206 v 4.784595 h 2.101815 v 4.948606 h -2.101815 c 0,0.991865 0.156363,1.676492 0.468115,2.052582 0.311753,0.37609 0.887246,0.56381 1.720316,0.56381 z"
           id="path3786"
           inkscape:connector-curvature="0"
           style="fill:#218fbf;fill-opacity:1" />
      </g>
    </g>
  </g>
  <text
     xml:space="preserve"
     style="font-style:normal;font-weight:normal;font-size:40px;line-height:1.25;font-family:sans-serif;letter-spacing:0px;word-spacing:0px;fill:#ffffff;fill-opacity:1;stroke:none"
     x="13.576271"
     y="-24.669844"
     id="text3801"
     transform="scale(1,-1)"><tspan
       sodipodi:role="line"
       id="tspan3799"
       x="13.576271"
       y="-24.669844">B</tspan></text>
  <path
     style="fill:#8fbf21;fill-opacity:1;stroke-width:0.37711865"
     d="m 17.75,38.671262 c 0,12.401862 -0.07157,14.116556 -0.624461,14.960369 -0.465369,0.710243 -0.670494,2.148018 -0.805151,5.643511 l -0.180691,4.690464 h 2.313626 2.313626 v -3.937489 c 0,-3.988904 0.286513,-4.83965 1.336435,-3.968292 0.412974,0.342737 0.549158,1.379519 0.549158,4.180771 v 3.72501 h 2.038814 2.038814 l 0.129618,-3.753102 c 0.07523,-2.178389 0.313619,-3.936779 0.568158,-4.19087 0.934882,-0.933237 1.258495,0.097 1.258495,4.006483 v 3.937489 h 2.262712 2.262711 v -4.355592 c 0,-3.093842 -0.160534,-4.666031 -0.554168,-5.427235 -0.538062,-1.040497 -0.52157,-1.085146 0.567414,-1.536218 0.61687,-0.255516 1.62991,-1.04353 2.251202,-1.751141 0.962666,-1.096417 1.12962,-1.593948 1.12962,-3.366325 0,-2.492886 -0.666512,-3.912077 -2.490742,-5.303484 l -1.360179,-1.03746 1.376014,-0.476387 c 3.271243,-1.132533 5.121647,-3.715836 5.106455,-7.128994 -0.01545,-3.47052 -1.902946,-6.154885 -5.459938,-7.765019 -1.693276,-0.76649 -2.606779,-0.868859 -8.956567,-1.003678 L 17.75,24.663942 Z m 14.846429,-9.967806 c 1.907602,0.909429 2.87495,2.533104 2.876738,4.828547 0.0033,4.194129 -1.667204,5.19391 -9.126374,5.462162 l -5.202725,0.187104 v -5.758721 -5.758721 l 4.996822,0.1721 c 3.808823,0.131184 5.343633,0.33744 6.455539,0.867529 z M 31.003951,42.68674 c 2.71405,1.40349 2.715162,6.178121 0.0017,7.302074 -0.68045,0.281853 -2.942017,0.505644 -5.420326,0.536365 l -4.252695,0.05271 -0.108232,-3.934251 c -0.05953,-2.163838 -0.01325,-4.181762 0.102833,-4.484277 0.176146,-0.459028 0.906869,-0.505997 4.416794,-0.2839 2.417328,0.152962 4.654006,0.497939 5.259929,0.811274 z"
     id="path3803"
     inkscape:connector-curvature="0" />
  <path
     style="fill:#8fbf21;fill-opacity:1;stroke-width:0.37711865"
     d="m 40,46.332979 c 0,2.095059 0.09813,2.412081 0.848517,2.741295 0.52443,0.23008 0.894094,0.76837 0.967846,1.409341 0.110708,0.962158 0.02082,1.037076 -1.244364,1.037076 -0.75003,0 -1.877743,0.265826 -2.506028,0.590725 -1.738486,0.899006 -2.214276,2.51168 -2.214276,7.505213 v 4.348977 H 37.925847 40 v -3.510548 c 0,-2.349697 0.168138,-3.740491 0.508468,-4.20592 0.990298,-1.354313 1.377125,-0.292818 1.377125,3.778979 v 3.937489 h 2.290017 2.290016 L 46.344042,56.109988 46.222458,48.25437 45.165887,46.870185 c -1.090396,-1.428499 -2.329662,-2.22617 -4.128811,-2.657568 L 40,43.963948 Z"
     id="path3805"
     inkscape:connector-curvature="0" />
  <path
     style="fill:#8fbf21;fill-opacity:1;stroke-width:0.37711865"
     d="m 48.675832,57.46031 c 0.0012,3.059375 0.169201,6.163989 0.373432,6.899143 0.421243,1.51632 2.31271,3.513182 3.8916,4.108447 1.952965,0.736296 2.143882,0.58367 2.143882,-1.713909 0,-1.805927 -0.137454,-2.222278 -0.942797,-2.855761 -1.29175,-1.01609 -1.29175,-2.572454 0,-2.572454 0.900895,0 0.942797,-0.100565 0.942797,-2.262712 0,-2.162147 -0.0419,-2.262712 -0.942797,-2.262712 -0.908952,0 -0.942796,-0.08799 -0.942796,-2.451271 V 51.89781 h -2.262712 -2.262712 l 0.0021,5.5625 z"
     id="path3807"
     inkscape:connector-curvature="0" />
  <path
     style="fill:#8fbf21;fill-opacity:1;stroke-width:0.37711865"
     d="m 57.724576,58.138995 c 0,6.948442 0.196931,7.715337 2.415818,9.407765 0.706891,0.539171 1.894993,1.079258 2.640227,1.200193 l 1.354972,0.219882 V 66.65478 c 0,-1.289958 -0.166714,-2.312055 -0.377118,-2.312055 -0.654756,0 -1.885594,-1.477005 -1.885594,-2.262712 0,-0.586629 0.251413,-0.754237 1.131356,-0.754237 h 1.131356 V 59.063064 56.800352 H 63.004237 61.872881 V 54.349081 51.89781 h -2.074152 -2.074153 z"
     id="path3809"
     inkscape:connector-curvature="0" />
  <path
     style="fill:#8fbf21;fill-opacity:1;stroke-width:0.37711865"
     d="m 70.786933,52.073099 c -1.919757,0.684374 -3.550339,2.290482 -4.011793,3.951578 -0.204946,0.737744 -0.373575,3.844478 -0.374732,6.903853 l -0.0021,5.5625 h 2.262712 2.262712 v -2.262712 c 0,-2.162147 0.0419,-2.262712 0.942796,-2.262712 0.908953,0 0.942797,-0.08799 0.942797,-2.451271 0,-2.380195 -0.02806,-2.451271 -0.967846,-2.451271 -0.833347,0 -0.951263,-0.144119 -0.848517,-1.037076 0.07375,-0.640971 0.443416,-1.179261 0.967846,-1.409341 0.749994,-0.329041 0.848517,-0.646502 0.848517,-2.73411 0,-1.299016 -0.127278,-2.354397 -0.282839,-2.345293 -0.155561,0.0091 -0.938359,0.250239 -1.73955,0.535855 z"
     id="path3811"
     inkscape:connector-curvature="0" />
  <path
     style="fill:url(#meshgradient3815);fill-opacity:1;stroke-width:0.37711865"
     d="m 6.4364407,53.964777 c 0,1.890954 0.125643,2.458456 0.5442938,2.458456 1.147584,0 1.718418,1.575267 1.718418,4.742125 0,2.5644 0.1402458,3.273939 0.8574913,4.338259 1.1108402,1.648376 3.1179702,2.987413 4.4779392,2.987413 1.063193,0 1.075586,-0.02607 1.075586,-2.262712 0,-1.720377 -0.130458,-2.262712 -0.544293,-2.262712 -1.132686,0 -1.718418,-1.577501 -1.718418,-4.628062 0,-3.135664 -0.430737,-4.418506 -1.944042,-5.789854 C 9.8557977,52.598344 8.888247,52.092423 7.4735169,51.754233 L 6.4364407,51.506321 Z"
     id="path3813"
     inkscape:connector-curvature="0" />
  <rect
     style="fill:#218fbf;fill-opacity:1;stroke-width:1.26357484"
     id="rect3829"
     width="67.436958"
     height="50.15678"
     x="6.4110169"
     y="-73.432556"
     transform="scale(1,-1)" />
  <text
     xml:space="preserve"
     style="font-style:normal;font-variant:normal;font-weight:normal;font-stretch:normal;font-size:24px;line-height:1.25;font-family:'Bauhaus 93';-inkscape-font-specification:'Bauhaus 93, ';letter-spacing:0px;word-spacing:0px;fill:#ffffff;fill-opacity:1;stroke:none;stroke-opacity:1;"
     x="6.4449148"
     y="51.288136"
     id="text3837"><tspan
       sodipodi:role="line"
       x="6.4449148"
       y="51.288136"
       id="tspan3841">Better</tspan></text>
  <text
     xml:space="preserve"
     style="font-style:normal;font-variant:normal;font-weight:normal;font-stretch:normal;font-size:24px;line-height:1.25;font-family:'Bauhaus 93';-inkscape-font-specification:'Bauhaus 93, ';letter-spacing:0px;word-spacing:0px;fill:#ffffff;fill-opacity:1;stroke:none;stroke-opacity:1;"
     x="15.86651"
     y="70.600243"
     id="text3849"><tspan
       sodipodi:role="line"
       id="tspan3847"
       x="15.86651"
       y="70.600243">Bind</tspan></text>
  <path
     sodipodi:type="star"
     style="fill:#ffffff;fill-opacity:1"
     id="path3851"
     sodipodi:sides="5"
     sodipodi:cx="16.387259"
     sodipodi:cy="80.661598"
     sodipodi:r1="4.2936082"
     sodipodi:r2="1.6827129"
     sodipodi:arg1="0.93971698"
     sodipodi:arg2="1.5673792"
     inkscape:flatsided="false"
     inkscape:rounded="0"
     inkscape:randomized="0"
     d="m 18.920558,84.128219 -2.527549,-1.783918 -2.51987,1.797853 0.915551,-2.955103 -2.488543,-1.840972 3.093392,-0.04244 0.981866,-2.935637 0.99627,2.928877 3.095369,0.02665 -2.477663,1.852581 z"
     inkscape:transform-center-x="0.085431518"
     inkscape:transform-center-y="-0.31563415" />
  <path
     sodipodi:type="star"
     style="fill:#ffffff;fill-opacity:1"
     id="path3851-0"
     sodipodi:sides="5"
     sodipodi:cx="7.0702366"
     sodipodi:cy="80.606636"
     sodipodi:r1="4.2936082"
     sodipodi:r2="1.6827129"
     sodipodi:arg1="0.93971698"
     sodipodi:arg2="1.5673792"
     inkscape:flatsided="false"
     inkscape:rounded="0"
     inkscape:randomized="0"
     d="m 9.6035366,84.073257 -2.5275499,-1.783918 -2.51987,1.797853 0.9155511,-2.955103 -2.4885426,-1.840972 3.0933915,-0.04244 0.9818661,-2.935636 0.9962701,2.928877 3.0953691,0.02665 -2.4776627,1.852581 z"
     inkscape:transform-center-x="0.085431518"
     inkscape:transform-center-y="-0.31563415" />
  <path
     sodipodi:type="star"
     style="fill:#ffffff;fill-opacity:1"
     id="path3851-7"
     sodipodi:sides="5"
     sodipodi:cx="25.736658"
     sodipodi:cy="80.606637"
     sodipodi:r1="4.2936082"
     sodipodi:r2="1.6827129"
     sodipodi:arg1="0.93971698"
     sodipodi:arg2="1.5673792"
     inkscape:flatsided="false"
     inkscape:rounded="0"
     inkscape:randomized="0"
     d="m 28.269958,84.073257 -2.52755,-1.783918 -2.51987,1.797853 0.915551,-2.955103 -2.488542,-1.840972 3.093391,-0.04244 0.981866,-2.935636 0.99627,2.928877 3.09537,0.02665 -2.477663,1.852581 z"
     inkscape:transform-center-x="0.085431518"
     inkscape:transform-center-y="-0.31563415" />
  <path
     sodipodi:type="star"
     style="fill:#ffffff;fill-opacity:1"
     id="path3851-3"
     sodipodi:sides="5"
     sodipodi:cx="44.194016"
     sodipodi:cy="80.553383"
     sodipodi:r1="4.2936082"
     sodipodi:r2="1.6827129"
     sodipodi:arg1="0.93971698"
     sodipodi:arg2="1.5673792"
     inkscape:flatsided="false"
     inkscape:rounded="0"
     inkscape:randomized="0"
     d="m 46.727315,84.020004 -2.527549,-1.783918 -2.51987,1.797853 0.915551,-2.955104 -2.488543,-1.840971 3.093392,-0.04244 0.981866,-2.935636 0.99627,2.928877 3.095369,0.02665 -2.477663,1.852582 z"
     inkscape:transform-center-x="0.085431518"
     inkscape:transform-center-y="-0.31563415" />
  <path
     sodipodi:type="star"
     style="fill:#ffffff;fill-opacity:1"
     id="path3851-0-1"
     sodipodi:sides="5"
     sodipodi:cx="35.143654"
     sodipodi:cy="80.631752"
     sodipodi:r1="4.2936082"
     sodipodi:r2="1.6827129"
     sodipodi:arg1="0.93971698"
     sodipodi:arg2="1.5673792"
     inkscape:flatsided="false"
     inkscape:rounded="0"
     inkscape:randomized="0"
     d="m 37.676954,84.098373 -2.52755,-1.783918 -2.51987,1.797853 0.915551,-2.955104 -2.488543,-1.840971 3.093392,-0.04244 0.981866,-2.935636 0.99627,2.928877 3.095369,0.02665 -2.477663,1.852582 z"
     inkscape:transform-center-x="0.085431518"
     inkscape:transform-center-y="-0.31563415" />
  <path
     sodipodi:type="star"
     style="fill:#ffffff;fill-opacity:1"
     id="path3851-7-7"
     sodipodi:sides="5"
     sodipodi:cx="53.676747"
     sodipodi:cy="80.49842"
     sodipodi:r1="4.2936082"
     sodipodi:r2="1.6827129"
     sodipodi:arg1="0.93971698"
     sodipodi:arg2="1.5673792"
     inkscape:flatsided="false"
     inkscape:rounded="0"
     inkscape:randomized="0"
     d="m 56.210046,83.965042 -2.52755,-1.783918 -2.51987,1.797853 0.915551,-2.955104 -2.488542,-1.840971 3.093391,-0.04244 0.981867,-2.935636 0.99627,2.928877 3.095369,0.02665 -2.477663,1.852582 z"
     inkscape:transform-center-x="0.085431518"
     inkscape:transform-center-y="-0.31563415" />
  <path
     sodipodi:type="star"
     style="fill:#ffffff;fill-opacity:1"
     id="path3851-3-3"
     sodipodi:sides="5"
     sodipodi:cx="62.804874"
     sodipodi:cy="80.686713"
     sodipodi:r1="4.2936082"
     sodipodi:r2="1.6827129"
     sodipodi:arg1="0.93971698"
     sodipodi:arg2="1.5673792"
     inkscape:flatsided="false"
     inkscape:rounded="0"
     inkscape:randomized="0"
     d="m 65.338174,84.153335 -2.52755,-1.783918 -2.51987,1.797853 0.915552,-2.955103 -2.488543,-1.840972 3.093391,-0.04244 0.981867,-2.935637 0.99627,2.928877 3.095369,0.02665 -2.477663,1.852581 z"
     inkscape:transform-center-x="0.085431518"
     inkscape:transform-center-y="-0.31563415" />
  <path
     sodipodi:type="star"
     style="fill:#ffffff;fill-opacity:1"
     id="path3851-7-7-5"
     sodipodi:sides="5"
     sodipodi:cx="72.287605"
     sodipodi:cy="80.631751"
     sodipodi:r1="4.2936082"
     sodipodi:r2="1.6827129"
     sodipodi:arg1="0.93971698"
     sodipodi:arg2="1.5673792"
     inkscape:flatsided="false"
     inkscape:rounded="0"
     inkscape:randomized="0"
     d="m 74.820905,84.098373 -2.52755,-1.783918 -2.51987,1.797853 0.915551,-2.955104 -2.488542,-1.840971 3.093391,-0.04244 0.981866,-2.935636 0.99627,2.928877 3.09537,0.02665 -2.477663,1.852582 z"
     inkscape:transform-center-x="0.085431518"
     inkscape:transform-center-y="-0.31563415" />
</svg>
