<?xml version="1.0" encoding="UTF-8" standalone="no"?>
<!-- Generator: Adobe Illustrator 21.0.2, SVG Export Plug-In . SVG Version: 6.00 Build 0)  -->

<svg
   xmlns:dc="http://purl.org/dc/elements/1.1/"
   xmlns:cc="http://creativecommons.org/ns#"
   xmlns:rdf="http://www.w3.org/1999/02/22-rdf-syntax-ns#"
   xmlns:svg="http://www.w3.org/2000/svg"
   xmlns="http://www.w3.org/2000/svg"
   xmlns:sodipodi="http://sodipodi.sourceforge.net/DTD/sodipodi-0.dtd"
   xmlns:inkscape="http://www.inkscape.org/namespaces/inkscape"
   version="1.1"
   id="Layer_1"
   x="0px"
   y="0px"
   viewBox="0 0 45 50.2"
   style="enable-background:new 0 0 45 50.2;"
   xml:space="preserve"
   sodipodi:docname="shield-logo-45x50-white.svg"
   inkscape:version="0.92.3 (2405546, 2018-03-11)"><metadata
   id="metadata11"><rdf:RDF><cc:Work
       rdf:about=""><dc:format>image/svg+xml</dc:format><dc:type
         rdf:resource="http://purl.org/dc/dcmitype/StillImage" /><dc:title /></cc:Work></rdf:RDF></metadata><defs
   id="defs9" /><sodipodi:namedview
   pagecolor="#ffffff"
   bordercolor="#666666"
   borderopacity="1"
   objecttolerance="10"
   gridtolerance="10"
   guidetolerance="10"
   inkscape:pageopacity="0"
   inkscape:pageshadow="2"
   inkscape:window-width="1680"
   inkscape:window-height="988"
   id="namedview7"
   showgrid="false"
   inkscape:zoom="13.296988"
   inkscape:cx="14.223312"
   inkscape:cy="23.675115"
   inkscape:window-x="-8"
   inkscape:window-y="-8"
   inkscape:window-maximized="1"
   inkscape:current-layer="Layer_1" />
<style
   type="text/css"
   id="style2">
	.st0{fill:#FFFFFF;}
</style>
<g
   id="lato"
   transform="matrix(0.56618713,0,0,-0.56318983,-0.018,50.124944)"
   style="fill:#ffffff;fill-opacity:0.9187817;fill-rule:evenodd;stroke:none;stroke-width:1"><g
     id="home-tablet"
     transform="translate(-82,-154)"
     style="fill:#ffffff;fill-opacity:0.9187817"><g
       id="logo"
       transform="translate(82,154)"
       style="fill:#ffffff;fill-opacity:0.9187817"><path
         d="M 45.339377,0 H 34.141594 0 V 18.856472 37.025395 50.293778 H 0.03179161 C 0.71920407,71.663039 18.227622,88.780013 39.739512,88.780013 c 21.51189,0 39.020309,-17.116974 39.707721,-38.486235 h 0.03179 V 39.745715 18.856472 0 Z"
         id="logo-shield-copy"
         inkscape:connector-curvature="0"
         style="fill:#ffffff;fill-opacity:0.9187817" /><path
         d="m 15.163949,24.893401 c -0.107053,-0.0081 -0.187505,-0.01299 -0.236166,-0.01299 -0.592038,0 -1.050745,0.19649 -1.369959,0.588819 -0.315321,0.384859 -0.473306,0.929832 -0.480118,1.632322 h 0.01946 V 30.5419 c 0,1.1942 -0.204699,2.212047 -0.614097,3.055814 -0.515478,1.075981 -1.302483,1.954824 -2.357445,2.635229 -1.0556115,0.68073 -2.1537196,1.02077 -3.2978932,1.02077 L 6.327828,37.242669 v -4.910932 c 0.1096486,0.0097 0.1888032,0.01267 0.2394103,0.01267 0.5936596,0 1.0462034,-0.195515 1.3686612,-0.587844 0.3146721,-0.383885 0.4729813,-0.930482 0.4801182,-1.632647 h -0.018815 v -3.438725 c 0,-1.194524 0.2059966,-2.21367 0.6124751,-3.055813 0.517749,-1.077931 1.3041042,-1.957748 2.3597152,-2.638153 1.052368,-0.677481 2.152422,-1.020445 3.294649,-1.020445 l 0.499907,0.01332 z"
         id="path3770"
         inkscape:connector-curvature="0"
         style="fill:#ffffff;fill-opacity:0.9187817" /><path
         d="m 33.35394,32.444759 c 0,1.401732 -0.472008,2.593658 -1.416673,3.577079 -0.941421,0.979198 -2.082675,1.470259 -3.425059,1.470259 -1.385855,0 -2.627674,-0.583622 -3.729351,-1.754438 -1.214893,1.170816 -2.442763,1.754438 -3.675823,1.754438 -1.559736,0 -2.811936,-0.568357 -3.754654,-1.703448 -0.739966,-0.893458 -1.111733,-2.183142 -1.111733,-3.870351 v -7.162926 h 4.67661 v 6.725129 c 0,0.526461 0.05483,0.890534 0.162527,1.096767 0.109648,0.203634 0.306886,0.305289 0.588793,0.305289 0.527157,0 0.788302,-0.465728 0.788302,-1.402056 v -6.725129 h 4.677909 v 6.725129 c 0,0.526461 0.05807,0.890534 0.170961,1.096767 0.110946,0.203634 0.308508,0.305289 0.593659,0.305289 0.516452,0 0.774353,-0.465728 0.774353,-1.402056 v -6.725129 h 4.680179 z"
         id="path3772"
         inkscape:connector-curvature="0"
         style="fill:#ffffff;fill-opacity:0.9187817" /><path
         d="m 46.513396,27.49388 v 4.950879 5.654993 c 0,1.194525 -0.204699,2.214321 -0.614097,3.055164 -0.515154,1.07858 -1.301185,1.958397 -2.358094,2.638802 -1.054314,0.680081 -2.152422,1.020121 -3.294649,1.020121 l -0.500231,-0.01332 V 39.89089 c 0.106729,0.0081 0.185883,0.01396 0.23649,0.01396 0.592363,0 1.049124,-0.196814 1.369959,-0.589792 0.321161,-0.392004 0.481416,-0.949969 0.481416,-1.677142 v -0.153294 c -0.0545,0.0016 -0.107702,0.0075 -0.162851,0.0075 h -1.185373 c -1.558113,0 -2.808691,-0.568357 -3.750436,-1.703448 -0.742562,-0.893458 -1.114329,-2.183142 -1.114329,-3.870351 v -7.162926 h 4.67726 v 6.725129 c 0,0.526461 0.05385,0.890534 0.163499,1.096767 0.107054,0.203634 0.304616,0.305289 0.587172,0.305289 0.510937,0 0.771758,-0.445268 0.785058,-1.333204 v -0.06885 -3.986621 -2.738508 h 4.679206 z"
         id="path3774"
         inkscape:connector-curvature="0"
         style="fill:#ffffff;fill-opacity:0.9187817" /><path
         d="m 55.393312,24.668332 c -0.109649,-0.0094 -0.187506,-0.01299 -0.238113,-0.01299 -0.592686,0 -1.050096,0.196814 -1.369959,0.588818 -0.320511,0.393953 -0.48174,0.952242 -0.48174,1.677791 v 0.426105 h 2.089812 V 32.25704 H 53.3035 v 4.808953 H 48.62397 V 26.458495 c 0,-1.192901 0.204699,-2.212047 0.613772,-3.055814 0.517749,-1.076306 1.302808,-1.954824 2.358419,-2.636203 1.055611,-0.68073 2.154044,-1.02077 3.295946,-1.02077 l 0.501205,0.01332 z"
         id="path3778"
         inkscape:connector-curvature="0"
         style="fill:#ffffff;fill-opacity:0.9187817" /><path
         d="m 64.211591,24.668332 c -0.108676,-0.0094 -0.188155,-0.01299 -0.238762,-0.01299 -0.591064,0 -1.047825,0.196814 -1.368661,0.588818 -0.321809,0.393953 -0.481416,0.952242 -0.481416,1.677791 v 0.426105 h 2.088839 v 4.908984 h -2.088839 v 4.808953 H 57.444195 V 26.458495 c 0,-1.192901 0.205997,-2.212047 0.614746,-3.055814 0.515154,-1.076306 1.301834,-1.954824 2.355499,-2.636203 1.055611,-0.68073 2.153719,-1.02077 3.297244,-1.02077 l 0.499907,0.01332 z"
         id="path3782"
         inkscape:connector-curvature="0"
         style="fill:#ffffff;fill-opacity:0.9187817" /><path
         d="m 73.151197,37.242669 c -0.242006,0.0065 -0.420104,0.01104 -0.537214,0.01104 -1.059504,0 -2.05802,-0.24683 -2.996197,-0.73919 C 68.679285,36.021838 67.926667,35.355074 67.359609,34.511307 66.644298,33.434351 66.28356,32.006962 66.28356,30.22849 V 19.970777 h 4.679206 v 4.784595 h 2.101815 v 4.948606 h -2.101815 c 0,0.991865 0.156363,1.676492 0.468115,2.052582 0.311753,0.37609 0.887246,0.56381 1.720316,0.56381 z"
         id="path3786"
         inkscape:connector-curvature="0"
         style="fill:#ffffff;fill-opacity:0.9187817" /></g></g></g>
<g
   aria-label="Better"
   style="font-style:normal;font-variant:normal;font-weight:normal;font-stretch:normal;font-size:24px;line-height:1.25;font-family:'Bauhaus 93';-inkscape-font-specification:'Bauhaus 93, ';letter-spacing:0px;word-spacing:0px;fill:#ffffff;fill-opacity:1;stroke:none;stroke-opacity:1"
   id="text3837"
   transform="matrix(0.56618713,0,0,0.56318983,-0.018,0.12494478)" /><g
   aria-label="Bind"
   style="font-style:normal;font-variant:normal;font-weight:normal;font-stretch:normal;font-size:24px;line-height:1.25;font-family:'Bauhaus 93';-inkscape-font-specification:'Bauhaus 93, ';letter-spacing:0px;word-spacing:0px;fill:#ffffff;fill-opacity:1;stroke:none;stroke-opacity:1"
   id="text3849"
   transform="matrix(0.56618713,0,0,0.56318983,-0.018,0.12494478)" /><path
   inkscape:connector-curvature="0"
   id="path3851-7-7-5"
   style="fill:#218fbf;fill-opacity:1;stroke-width:0.56468648"
   d="m 42.344634,47.488292 -1.431066,-1.004684 -1.426718,1.012533 0.518373,-1.664285 -1.40898,-1.036816 1.751438,-0.0239 0.55592,-1.65332 0.564075,1.649514 1.752559,0.01501 -1.402821,1.043355 z m -5.369,0.03095 -1.431067,-1.004684 -1.426717,1.012532 0.518373,-1.664283 -1.408981,-1.036817 1.751438,-0.0239 0.555921,-1.653321 0.564075,1.649514 1.752558,0.01501 -1.402821,1.043355 z m -5.168229,-0.106044 -1.431066,-1.004685 -1.426718,1.012533 0.518373,-1.664285 -1.40898,-1.036816 1.751438,-0.0239 0.55592,-1.65332 0.564076,1.649514 1.752558,0.01501 -1.402821,1.043355 z m -10.493198,0.07509 -1.431066,-1.004684 -1.426718,1.012532 0.518373,-1.664284 -1.408981,-1.036816 1.751439,-0.0239 0.55592,-1.65332 0.564075,1.649513 1.752558,0.01501 -1.402821,1.043356 z m 5.124198,-0.04414 -1.431066,-1.004684 -1.426718,1.012532 0.518373,-1.664284 -1.408981,-1.036816 1.751439,-0.0239 0.55592,-1.653321 0.564075,1.649514 1.752558,0.01501 -1.402821,1.043356 z m -10.450318,0.02999 -1.431066,-1.004684 -1.426718,1.012532 0.518373,-1.664284 -1.408981,-1.036817 1.751439,-0.0239 0.555919,-1.653321 0.564076,1.649514 1.752558,0.01501 -1.402821,1.043355 z m -10.568687,0 -1.431067,-1.004684 -1.426718,1.012532 0.518374,-1.664284 -1.408982,-1.036817 1.751439,-0.0239 0.55592,-1.653321 0.564075,1.649514 1.752558,0.01501 -1.40282,1.043355 z m 5.275177,0.03095 -1.431066,-1.004685 -1.426718,1.012533 0.518373,-1.664284 -1.408981,-1.036817 1.751439,-0.0239 0.55592,-1.653321 0.564075,1.649513 1.752558,0.01501 -1.40282,1.043355 z M 32.818259,30.877441 h 2.481492 v 5.484501 q 0,1.511373 -0.796201,2.461756 -0.457815,0.54779 -1.167761,0.871184 -0.70331,0.323394 -1.446431,0.323394 -1.479606,0 -2.494762,-0.989982 -1.015156,-0.989982 -1.015156,-2.428756 0,-1.392575 1.008521,-2.408957 1.008521,-1.016381 2.388602,-1.016381 0.218956,0 0.663501,0.0396 v 2.71915 q -0.305211,-0.237595 -0.610421,-0.237595 -0.38483,0 -0.6635,0.283795 -0.272036,0.277195 -0.272036,0.673188 0,0.382793 0.285305,0.659988 0.285306,0.270595 0.683406,0.270595 0.955441,0 0.955441,-1.313376 z M 27.2913,39.886279 h -2.481493 v -3.715734 q 0,-0.567589 -0.471085,-0.567589 -0.46445,0 -0.46445,0.567589 v 3.715734 H 21.39278 v -3.669534 q 0,-1.286977 0.855915,-2.164761 0.855916,-0.884384 2.096662,-0.884384 1.419891,0 2.275807,1.022981 0.670136,0.798586 0.670136,2.22416 z m -7.371491,-6.580077 v 6.580081 h -2.481493 v -6.580081 z m -1.234112,-2.936947 q 0.504261,0 0.869186,0.356394 0.37156,0.349793 0.37156,0.831584 0,0.514791 -0.351655,0.844785 -0.34502,0.329994 -0.889091,0.329994 -0.54407,0 -0.895725,-0.329994 -0.34502,-0.329994 -0.34502,-0.844785 0,-0.481791 0.364925,-0.831584 0.37156,-0.356394 0.87582,-0.356394 z M 9.87441,30.877446 h 3.290963 q 2.926037,0 2.926037,2.290158 0,1.13518 -1.001885,1.887566 1.453066,0.626989 1.453066,2.23736 0,1.234177 -0.855916,1.966764 -0.418005,0.349794 -0.895726,0.488391 -0.47772,0.138598 -1.287191,0.138598 h -0.510895 v -2.316559 h 0.457815 q 0.404735,0 0.570611,-0.099 0.165875,-0.105598 0.165875,-0.362993 0,-0.435592 -0.676771,-0.435592 h -0.51753 v -2.402355 q 0.743121,0 0.743121,-0.50819 0,-0.468592 -0.670136,-0.468592 h -0.497625 v 6.593281 H 9.87441 Z M 39.884698,22.36382 v 2.639953 q -0.258765,-0.145197 -0.471085,-0.145197 -0.676771,0 -0.676771,1.029581 v 3.121744 H 36.25535 v -3.596935 q 0,-1.425575 0.782931,-2.270359 0.782931,-0.851385 2.090026,-0.851385 0.29194,0 0.756391,0.0726 z m -4.664409,3.755333 h -3.762048 q -0.08626,-0.283795 -0.08626,-0.521391 0,-0.329994 0.11943,-0.646788 h 1.260651 q -0.1327,-0.732587 -0.829375,-0.732587 -0.464451,0 -0.756391,0.395993 -0.291941,0.389393 -0.291941,1.003182 0,0.640188 0.278671,1.036181 0.285305,0.395993 0.743121,0.395993 0.37156,0 0.71658,-0.369593 l 1.413256,1.689569 q -0.988615,0.772186 -2.196187,0.772186 -1.472971,0 -2.474856,-0.983382 -1.001887,-0.983382 -1.001887,-2.435356 0,-1.445374 1.008521,-2.441956 1.015156,-0.996582 2.488128,-0.996582 1.439795,0 2.415142,0.976782 0.98198,0.970183 0.98198,2.395757 0,0.145198 -0.02654,0.461992 z m -8.831192,-6.11809 v 2.521155 h 1.114681 v 2.606953 h -1.114681 q 0,0.785386 0.245495,1.08238 0.252131,0.296995 0.915631,0.296995 v 2.593753 q -0.192415,0.0066 -0.285305,0.0066 -0.842646,0 -1.592402,-0.389392 -0.74312,-0.389394 -1.194301,-1.055981 -0.57061,-0.851385 -0.57061,-2.25716 v -5.405302 z m -4.538344,0 v 2.521155 h 1.114681 v 2.606953 h -1.114681 q 0,0.785386 0.245495,1.08238 0.252131,0.296995 0.915631,0.296995 v 2.593753 q -0.192415,0.0066 -0.285305,0.0066 -0.842646,0 -1.592401,-0.389392 -0.743121,-0.389394 -1.194301,-1.055981 -0.570611,-0.851385 -0.570611,-2.25716 v -5.405302 z m -3.244517,6.11809 h -3.762049 q -0.08625,-0.283795 -0.08625,-0.521391 0,-0.329994 0.11943,-0.646788 h 1.260651 q -0.1327,-0.732587 -0.829376,-0.732587 -0.464451,0 -0.756391,0.395993 -0.29194,0.389393 -0.29194,1.003182 0,0.640188 0.27867,1.036181 0.285305,0.395993 0.743121,0.395993 0.37156,0 0.716581,-0.369593 l 1.413256,1.689569 q -0.988616,0.772186 -2.196187,0.772186 -1.472971,0 -2.474857,-0.983382 -1.001886,-0.983382 -1.001886,-2.435356 0,-1.445374 1.008521,-2.441956 1.015156,-0.996582 2.488127,-0.996582 1.439796,0 2.415142,0.976782 0.981981,0.970183 0.981981,2.395757 0,0.145198 -0.02654,0.461992 z M 4.540024,20.001063 h 3.290963 q 2.926037,0 2.926037,2.290159 0,1.135179 -1.001886,1.887566 1.453066,0.626989 1.453066,2.23736 0,1.234177 -0.855915,1.966764 -0.418006,0.349794 -0.895726,0.488391 -0.47772,0.138598 -1.287191,0.138598 H 7.658477 v -2.316559 h 0.457815 q 0.404736,0 0.57061,-0.099 0.165876,-0.105598 0.165876,-0.362993 0,-0.435593 -0.676771,-0.435593 H 7.658477 V 23.3934 q 0.74312,0 0.74312,-0.508191 0,-0.468591 -0.670135,-0.468591 H 7.233836 v 6.593281 H 4.540024 Z" /></svg>